<svg width="355" height="97" viewBox="0 0 355 97" fill="none" xmlns="http://www.w3.org/2000/svg">
<path d="M158 86.8095C157.489 91.4167 144.192 95 144.192 95H61.8567L1 9" stroke="#A6A6A6" stroke-width="2" stroke-linecap="round" stroke-linejoin="round"/>
<path d="M18.207 16.1481C17.2778 14.8227 18.226 13 19.8447 13H114.783C115.485 13 116.135 13.368 116.497 13.9696L159.178 84.9696C159.98 86.3026 159.019 88 157.464 88H69.6201C68.968 88 68.3568 87.6821 67.9824 87.1481L18.207 16.1481Z" fill="#C4C4C4"/>
<path d="M37 0L123 0L175 71H87.0413L37 0Z" fill="#114D9C"/>
<rect x="64" y="13" width="55" height="2" rx="1" fill="white"/>
<rect x="69" y="21" width="55" height="2" rx="1" fill="white"/>
<rect x="75" y="29" width="55" height="2" rx="1" fill="white"/>
<rect x="81" y="38" width="55" height="2" rx="1" fill="white"/>
<rect x="89" y="48" width="55" height="2" rx="1" fill="white"/>
<path d="M195.493 64.2334H192.459V71H188.65V52.5156H195.519C197.702 52.5156 199.386 53.0023 200.571 53.9756C201.756 54.9489 202.349 56.3242 202.349 58.1016C202.349 59.3626 202.074 60.4163 201.523 61.2627C200.982 62.1006 200.157 62.7692 199.048 63.2686L203.047 70.8223V71H198.959L195.493 64.2334ZM192.459 61.1484H195.531C196.488 61.1484 197.228 60.9072 197.753 60.4248C198.278 59.9339 198.54 59.2611 198.54 58.4062C198.54 57.5345 198.29 56.849 197.791 56.3496C197.3 55.8503 196.543 55.6006 195.519 55.6006H192.459V61.1484Z" fill="#062247"/>
<path d="M214.94 71.2441C213.003 71.2441 211.424 70.6501 210.203 69.4619C208.991 68.2738 208.384 66.6909 208.384 64.7134V64.3716C208.384 63.0451 208.641 61.861 209.153 60.8193C209.666 59.7695 210.39 58.9639 211.326 58.4023C212.27 57.8327 213.344 57.5479 214.549 57.5479C216.356 57.5479 217.776 58.1175 218.809 59.2568C219.851 60.3962 220.372 62.0116 220.372 64.103V65.5435H211.961C212.075 66.4061 212.417 67.0978 212.986 67.6187C213.564 68.1395 214.293 68.3999 215.171 68.3999C216.531 68.3999 217.593 67.9076 218.358 66.9229L220.091 68.8638C219.562 69.6125 218.846 70.1984 217.942 70.6216C217.039 71.0366 216.038 71.2441 214.94 71.2441ZM214.537 60.4043C213.837 60.4043 213.267 60.6403 212.828 61.1123C212.396 61.5843 212.12 62.2598 211.998 63.1387H216.905V62.8579C216.889 62.0767 216.677 61.4744 216.27 61.0513C215.863 60.62 215.285 60.4043 214.537 60.4043ZM233.79 71C233.627 70.6826 233.509 70.2879 233.436 69.8159C232.581 70.7681 231.47 71.2441 230.103 71.2441C228.809 71.2441 227.735 70.8698 226.88 70.1211C226.034 69.3724 225.611 68.4284 225.611 67.2891C225.611 65.8893 226.128 64.8151 227.161 64.0664C228.203 63.3177 229.704 62.9393 231.666 62.9312H233.289V62.1743C233.289 61.564 233.13 61.0757 232.813 60.7095C232.504 60.3433 232.011 60.1602 231.336 60.1602C230.742 60.1602 230.274 60.3026 229.932 60.5874C229.599 60.8722 229.432 61.2629 229.432 61.7593H225.904C225.904 60.9943 226.14 60.2863 226.612 59.6353C227.084 58.9842 227.751 58.4756 228.614 58.1094C229.476 57.735 230.445 57.5479 231.519 57.5479C233.147 57.5479 234.437 57.9588 235.389 58.7808C236.349 59.5946 236.829 60.742 236.829 62.2231V67.9482C236.837 69.2015 237.012 70.1496 237.354 70.7925V71H233.79ZM230.872 68.5464C231.393 68.5464 231.873 68.4325 232.313 68.2046C232.752 67.9686 233.078 67.6553 233.289 67.2646V64.9941H231.971C230.205 64.9941 229.265 65.6045 229.151 66.8252L229.139 67.0327C229.139 67.4722 229.293 67.8343 229.603 68.1191C229.912 68.404 230.335 68.5464 230.872 68.5464ZM242.74 64.2983C242.74 62.2394 243.2 60.5996 244.119 59.3789C245.047 58.1582 246.312 57.5479 247.916 57.5479C249.201 57.5479 250.263 58.028 251.102 58.9883V52.25H254.642V71H251.456L251.285 69.5962C250.406 70.6948 249.275 71.2441 247.891 71.2441C246.337 71.2441 245.088 70.6338 244.144 69.4131C243.208 68.1842 242.74 66.4793 242.74 64.2983ZM246.268 64.5547C246.268 65.7917 246.483 66.7397 246.915 67.3989C247.346 68.0581 247.973 68.3877 248.795 68.3877C249.885 68.3877 250.654 67.9279 251.102 67.0083V61.7959C250.662 60.8763 249.901 60.4165 248.819 60.4165C247.118 60.4165 246.268 61.7959 246.268 64.5547Z" fill="#828080"/>
<path d="M260.638 66.2148C260.638 65.3929 260.866 64.632 261.321 63.9321C261.785 63.2323 262.632 62.4551 263.86 61.6006C263.331 60.8926 262.916 60.2293 262.615 59.6108C262.314 58.9842 262.164 58.3332 262.164 57.6577C262.164 56.2743 262.599 55.1512 263.47 54.2886C264.349 53.4178 265.529 52.9824 267.01 52.9824C268.336 52.9824 269.423 53.3771 270.269 54.1665C271.124 54.9559 271.551 55.9406 271.551 57.1206C271.551 58.5366 270.835 59.7858 269.402 60.8682L268.035 61.8569L271.099 65.4214C271.579 64.4774 271.819 63.4357 271.819 62.2964H274.822C274.822 64.6076 274.289 66.4793 273.223 67.9116L275.884 71H271.88L270.965 69.9502C269.655 70.8128 268.149 71.2441 266.448 71.2441C264.691 71.2441 263.283 70.7843 262.225 69.8647C261.167 68.937 260.638 67.7204 260.638 66.2148ZM266.619 68.4121C267.466 68.4121 268.267 68.1761 269.024 67.7041L265.521 63.6514L265.264 63.8345C264.54 64.453 264.178 65.1813 264.178 66.0195C264.178 66.7275 264.402 67.3053 264.849 67.7529C265.305 68.1924 265.895 68.4121 266.619 68.4121ZM265.325 57.6089C265.325 58.2192 265.683 58.9883 266.4 59.916L267.339 59.2935C267.82 58.9842 268.149 58.6831 268.328 58.3901C268.515 58.0972 268.609 57.7472 268.609 57.3403C268.609 56.9334 268.458 56.5794 268.157 56.2783C267.856 55.9772 267.47 55.8267 266.998 55.8267C266.493 55.8267 266.086 55.9894 265.777 56.3149C265.476 56.6405 265.325 57.0718 265.325 57.6089Z" fill="#FE6150"/>
<path d="M288.094 64.4937H285.176V71H281.514V53.2266H288.118C290.218 53.2266 291.837 53.6945 292.977 54.6304C294.116 55.5662 294.686 56.8887 294.686 58.5977C294.686 59.8102 294.421 60.8234 293.892 61.6372C293.371 62.4429 292.578 63.0858 291.512 63.5659L295.357 70.8291V71H291.426L288.094 64.4937ZM285.176 61.5273H288.13C289.05 61.5273 289.762 61.2954 290.267 60.8315C290.771 60.3595 291.024 59.7126 291.024 58.8906C291.024 58.0524 290.783 57.3932 290.303 56.9131C289.831 56.4329 289.103 56.1929 288.118 56.1929H285.176V61.5273Z" fill="#072348"/>
<path d="M307.078 71.2441C305.141 71.2441 303.563 70.6501 302.342 69.4619C301.129 68.2738 300.523 66.6909 300.523 64.7134V64.3716C300.523 63.0451 300.779 61.861 301.292 60.8193C301.805 59.7695 302.529 58.9639 303.465 58.4023C304.409 57.8327 305.483 57.5479 306.688 57.5479C308.494 57.5479 309.914 58.1175 310.948 59.2568C311.99 60.3962 312.51 62.0116 312.51 64.103V65.5435H304.1C304.214 66.4061 304.555 67.0978 305.125 67.6187C305.703 68.1395 306.431 68.3999 307.31 68.3999C308.669 68.3999 309.731 67.9076 310.496 66.9229L312.23 68.8638C311.701 69.6125 310.984 70.1984 310.081 70.6216C309.178 71.0366 308.177 71.2441 307.078 71.2441ZM306.675 60.4043C305.976 60.4043 305.406 60.6403 304.966 61.1123C304.535 61.5843 304.258 62.2598 304.136 63.1387H309.044V62.8579C309.027 62.0767 308.816 61.4744 308.409 61.0513C308.002 60.62 307.424 60.4043 306.675 60.4043ZM325.928 71C325.766 70.6826 325.648 70.2879 325.574 69.8159C324.72 70.7681 323.609 71.2441 322.242 71.2441C320.948 71.2441 319.874 70.8698 319.019 70.1211C318.173 69.3724 317.75 68.4284 317.75 67.2891C317.75 65.8893 318.266 64.8151 319.3 64.0664C320.342 63.3177 321.843 62.9393 323.804 62.9312H325.428V62.1743C325.428 61.564 325.269 61.0757 324.952 60.7095C324.643 60.3433 324.15 60.1602 323.475 60.1602C322.881 60.1602 322.413 60.3026 322.071 60.5874C321.737 60.8722 321.57 61.2629 321.57 61.7593H318.043C318.043 60.9943 318.279 60.2863 318.751 59.6353C319.223 58.9842 319.89 58.4756 320.753 58.1094C321.615 57.735 322.584 57.5479 323.658 57.5479C325.285 57.5479 326.575 57.9588 327.527 58.7808C328.488 59.5946 328.968 60.742 328.968 62.2231V67.9482C328.976 69.2015 329.151 70.1496 329.493 70.7925V71H325.928ZM323.011 68.5464C323.532 68.5464 324.012 68.4325 324.451 68.2046C324.891 67.9686 325.216 67.6553 325.428 67.2646V64.9941H324.109C322.344 64.9941 321.404 65.6045 321.29 66.8252L321.277 67.0327C321.277 67.4722 321.432 67.8343 321.741 68.1191C322.051 68.404 322.474 68.5464 323.011 68.5464ZM334.879 64.2983C334.879 62.2394 335.338 60.5996 336.258 59.3789C337.186 58.1582 338.451 57.5479 340.054 57.5479C341.34 57.5479 342.402 58.028 343.24 58.9883V52.25H346.78V71H343.594L343.423 69.5962C342.545 70.6948 341.413 71.2441 340.03 71.2441C338.476 71.2441 337.226 70.6338 336.282 69.4131C335.346 68.1842 334.879 66.4793 334.879 64.2983ZM338.406 64.5547C338.406 65.7917 338.622 66.7397 339.053 67.3989C339.485 68.0581 340.111 68.3877 340.933 68.3877C342.024 68.3877 342.793 67.9279 343.24 67.0083V61.7959C342.801 60.8763 342.04 60.4165 340.958 60.4165C339.257 60.4165 338.406 61.7959 338.406 64.5547Z" fill="#8A8888"/>
</svg>
