<svg width="416" height="78" viewBox="0 0 416 78" fill="none" xmlns="http://www.w3.org/2000/svg">
<path d="M128.06 70.1673C127.647 73.8912 116.886 76.7876 116.886 76.7876H50.2514L1 7.27461" stroke="#A6A6A6" stroke-width="2" stroke-linecap="round" stroke-linejoin="round"/>
<path d="M15.35 13.6568C14.4197 12.3315 15.3677 10.5078 16.9869 10.5078H92.8695C93.571 10.5078 94.2213 10.8753 94.5831 11.4764L128.664 68.0981C129.466 69.4311 128.506 71.1295 126.95 71.1295H56.732C56.0803 71.1295 55.4695 70.812 55.0951 70.2786L15.35 13.6568Z" fill="#C4C4C4"/>
<path d="M30.1349 0L99.7349 0L141.819 57.3886H70.6335L30.1349 0Z" fill="#062146"/>
<rect x="51.9861" y="10.5078" width="44.5116" height="1.61658" rx="0.80829" fill="white"/>
<rect x="56.0326" y="16.9741" width="44.5116" height="1.61658" rx="0.80829" fill="white"/>
<rect x="60.8884" y="23.4404" width="44.5116" height="1.61658" rx="0.80829" fill="white"/>
<rect x="65.7441" y="30.715" width="44.5116" height="1.61658" rx="0.808291" fill="white"/>
<rect x="72.2186" y="38.7979" width="44.5116" height="1.61658" rx="0.80829" fill="white"/>
<path d="M166.966 42.686H160.548V57H152.491V17.8984H167.02C171.639 17.8984 175.202 18.9279 177.708 20.9868C180.215 23.0457 181.468 25.9551 181.468 29.7148C181.468 32.3825 180.886 34.6115 179.723 36.4019C178.577 38.1743 176.831 39.5887 174.486 40.645L182.945 56.624V57H174.298L166.966 42.686ZM160.548 36.1602H167.047C169.07 36.1602 170.637 35.6499 171.747 34.6294C172.857 33.591 173.412 32.1676 173.412 30.3594C173.412 28.5153 172.883 27.0651 171.827 26.0088C170.789 24.9525 169.186 24.4243 167.02 24.4243H160.548V36.1602Z" fill="#062247"/>
<path d="M198.282 57.5371C194.021 57.5371 190.548 56.2301 187.862 53.6162C185.194 51.0023 183.861 47.52 183.861 43.1694V42.4175C183.861 39.4992 184.425 36.8942 185.552 34.6025C186.68 32.293 188.274 30.5205 190.333 29.2852C192.41 28.0319 194.773 27.4053 197.423 27.4053C201.397 27.4053 204.521 28.6585 206.795 31.165C209.087 33.6715 210.233 37.2254 210.233 41.8267V44.9956H191.729C191.98 46.8934 192.732 48.4152 193.985 49.561C195.256 50.7069 196.859 51.2798 198.792 51.2798C201.782 51.2798 204.119 50.1966 205.801 48.0303L209.615 52.3003C208.451 53.9474 206.876 55.2365 204.888 56.1675C202.901 57.0806 200.699 57.5371 198.282 57.5371ZM197.396 33.6895C195.856 33.6895 194.603 34.2087 193.636 35.2471C192.687 36.2855 192.078 37.7715 191.81 39.7051H202.606V39.0874C202.57 37.3687 202.104 36.0438 201.209 35.1128C200.314 34.1639 199.043 33.6895 197.396 33.6895ZM229.302 57C228.944 56.3018 228.684 55.4334 228.523 54.395C226.643 56.4897 224.2 57.5371 221.192 57.5371C218.345 57.5371 215.982 56.7135 214.102 55.0664C212.24 53.4193 211.309 51.3424 211.309 48.8359C211.309 45.7565 212.446 43.3932 214.72 41.7461C217.011 40.099 220.315 39.2664 224.629 39.2485H228.201V37.5835C228.201 36.2407 227.852 35.1665 227.154 34.3608C226.473 33.5552 225.39 33.1523 223.904 33.1523C222.597 33.1523 221.568 33.4657 220.816 34.0923C220.082 34.7189 219.715 35.5783 219.715 36.6704H211.954C211.954 34.9875 212.473 33.4299 213.511 31.9976C214.55 30.5653 216.018 29.4463 217.915 28.6406C219.813 27.8171 221.944 27.4053 224.307 27.4053C227.888 27.4053 230.725 28.3094 232.82 30.1177C234.933 31.908 235.989 34.4325 235.989 37.6909V50.2861C236.007 53.0433 236.392 55.1291 237.144 56.5435V57H229.302ZM222.884 51.6021C224.03 51.6021 225.086 51.3514 226.053 50.8501C227.019 50.3309 227.736 49.6416 228.201 48.7822V43.7871H225.301C221.416 43.7871 219.348 45.1299 219.097 47.8154L219.07 48.272C219.07 49.2388 219.41 50.0355 220.091 50.6621C220.771 51.2887 221.702 51.6021 222.884 51.6021ZM238.543 42.2563C238.543 37.7267 239.554 34.1191 241.577 31.4336C243.618 28.748 246.402 27.4053 249.929 27.4053C252.758 27.4053 255.095 28.4616 256.939 30.5742V15.75H264.727V57H257.717L257.341 53.9116C255.408 56.3286 252.919 57.5371 249.876 57.5371C246.456 57.5371 243.708 56.1943 241.631 53.5088C239.572 50.8053 238.543 47.0545 238.543 42.2563ZM246.304 42.8203C246.304 45.5417 246.778 47.6274 247.727 49.0776C248.676 50.5278 250.055 51.2529 251.863 51.2529C254.262 51.2529 255.954 50.2414 256.939 48.2183V36.751C255.972 34.7279 254.298 33.7163 251.917 33.7163C248.175 33.7163 246.304 36.751 246.304 42.8203ZM348.737 57.5371C344.476 57.5371 341.003 56.2301 338.317 53.6162C335.649 51.0023 334.316 47.52 334.316 43.1694V42.4175C334.316 39.4992 334.88 36.8942 336.008 34.6025C337.135 32.293 338.729 30.5205 340.788 29.2852C342.865 28.0319 345.228 27.4053 347.878 27.4053C351.852 27.4053 354.976 28.6585 357.25 31.165C359.542 33.6715 360.688 37.2254 360.688 41.8267V44.9956H342.184C342.435 46.8934 343.187 48.4152 344.44 49.561C345.711 50.7069 347.314 51.2798 349.247 51.2798C352.237 51.2798 354.574 50.1966 356.257 48.0303L360.07 52.3003C358.906 53.9474 357.331 55.2365 355.343 56.1675C353.356 57.0806 351.154 57.5371 348.737 57.5371ZM347.851 33.6895C346.311 33.6895 345.058 34.2087 344.091 35.2471C343.142 36.2855 342.533 37.7715 342.265 39.7051H353.061V39.0874C353.025 37.3687 352.559 36.0438 351.664 35.1128C350.769 34.1639 349.498 33.6895 347.851 33.6895ZM379.757 57C379.399 56.3018 379.14 55.4334 378.978 54.395C377.099 56.4897 374.655 57.5371 371.647 57.5371C368.8 57.5371 366.437 56.7135 364.557 55.0664C362.695 53.4193 361.764 51.3424 361.764 48.8359C361.764 45.7565 362.901 43.3932 365.175 41.7461C367.466 40.099 370.77 39.2664 375.084 39.2485H378.656V37.5835C378.656 36.2407 378.307 35.1665 377.609 34.3608C376.928 33.5552 375.845 33.1523 374.359 33.1523C373.052 33.1523 372.023 33.4657 371.271 34.0923C370.537 34.7189 370.17 35.5783 370.17 36.6704H362.409C362.409 34.9875 362.928 33.4299 363.966 31.9976C365.005 30.5653 366.473 29.4463 368.371 28.6406C370.268 27.8171 372.399 27.4053 374.762 27.4053C378.343 27.4053 381.181 28.3094 383.275 30.1177C385.388 31.908 386.444 34.4325 386.444 37.6909V50.2861C386.462 53.0433 386.847 55.1291 387.599 56.5435V57H379.757ZM373.339 51.6021C374.485 51.6021 375.541 51.3514 376.508 50.8501C377.475 50.3309 378.191 49.6416 378.656 48.7822V43.7871H375.756C371.871 43.7871 369.803 45.1299 369.552 47.8154L369.525 48.272C369.525 49.2388 369.865 50.0355 370.546 50.6621C371.226 51.2887 372.157 51.6021 373.339 51.6021ZM388.998 42.2563C388.998 37.7267 390.009 34.1191 392.032 31.4336C394.073 28.748 396.857 27.4053 400.384 27.4053C403.213 27.4053 405.55 28.4616 407.394 30.5742V15.75H415.182V57H408.172L407.796 53.9116C405.863 56.3286 403.374 57.5371 400.331 57.5371C396.911 57.5371 394.163 56.1943 392.086 53.5088C390.027 50.8053 388.998 47.0545 388.998 42.2563ZM396.759 42.8203C396.759 45.5417 397.233 47.6274 398.182 49.0776C399.131 50.5278 400.51 51.2529 402.318 51.2529C404.717 51.2529 406.409 50.2414 407.394 48.2183V36.751C406.427 34.7279 404.753 33.7163 402.372 33.7163C398.63 33.7163 396.759 36.751 396.759 42.8203Z" fill="#555555"/>
<path d="M267.468 46.4727C267.468 44.6644 267.969 42.9904 268.972 41.4507C269.992 39.911 271.854 38.2012 274.558 36.3213C273.394 34.7637 272.481 33.3045 271.819 31.9438C271.156 30.5653 270.825 29.133 270.825 27.647C270.825 24.6034 271.783 22.1326 273.699 20.2349C275.632 18.3192 278.228 17.3613 281.487 17.3613C284.405 17.3613 286.795 18.2297 288.657 19.9663C290.537 21.703 291.477 23.8693 291.477 26.4653C291.477 29.5806 289.901 32.3288 286.75 34.71L283.742 36.8853L290.483 44.7271C291.54 42.6502 292.068 40.3586 292.068 37.8521H298.674C298.674 42.9367 297.501 47.0545 295.156 50.2056L301.011 57H292.202L290.188 54.6904C287.305 56.5882 283.993 57.5371 280.251 57.5371C276.384 57.5371 273.287 56.5256 270.959 54.5024C268.632 52.4614 267.468 49.7848 267.468 46.4727ZM280.627 51.3066C282.489 51.3066 284.253 50.7874 285.918 49.749L278.21 40.833L277.646 41.2358C276.053 42.5965 275.256 44.1989 275.256 46.043C275.256 47.6006 275.748 48.8717 276.733 49.8564C277.736 50.8232 279.034 51.3066 280.627 51.3066ZM277.781 27.5396C277.781 28.8823 278.568 30.5742 280.144 32.6152L282.212 31.2456C283.268 30.5653 283.993 29.9028 284.387 29.2583C284.799 28.6138 285.005 27.8439 285.005 26.9487C285.005 26.0535 284.673 25.2747 284.011 24.6123C283.349 23.9499 282.498 23.6187 281.46 23.6187C280.35 23.6187 279.455 23.9767 278.774 24.6929C278.112 25.409 277.781 26.3579 277.781 27.5396Z" fill="#48D77A"/>
<path d="M317.421 42.686H311.003V57H302.946V17.8984H317.475C322.094 17.8984 325.657 18.9279 328.164 20.9868C330.67 23.0457 331.923 25.9551 331.923 29.7148C331.923 32.3825 331.341 34.6115 330.178 36.4019C329.032 38.1743 327.286 39.5887 324.941 40.645L333.4 56.624V57H324.753L317.421 42.686ZM311.003 36.1602H317.502C319.525 36.1602 321.092 35.6499 322.202 34.6294C323.312 33.591 323.867 32.1676 323.867 30.3594C323.867 28.5153 323.339 27.0651 322.282 26.0088C321.244 24.9525 319.641 24.4243 317.475 24.4243H311.003V36.1602Z" fill="#072348"/>
</svg>
